<svg width="153" height="121" viewBox="0 0 153 121" fill="none" xmlns="http://www.w3.org/2000/svg">
<path fill-rule="evenodd" clip-rule="evenodd" d="M121.1 2.95122H31.8997C22.0902 2.95122 18.5889 4.11312 15.0177 6.02302C11.14 8.09682 8.09677 11.14 6.02297 15.0177C4.11307 18.5889 2.95117 22.0902 2.95117 31.8997V89.2954C2.95117 99.1049 4.11307 102.606 6.02297 106.177C8.09677 110.055 11.14 113.098 15.0177 115.172C18.5889 117.082 22.0902 118.244 31.8997 118.244H121.1C130.91 118.244 134.411 117.082 137.982 115.172C141.86 113.098 144.903 110.055 146.977 106.177C148.887 102.606 150.049 99.1049 150.049 89.2954V31.8997C150.049 22.0902 148.887 18.5889 146.977 15.0177C144.903 11.14 141.86 8.09682 137.982 6.02302C134.411 4.11312 130.91 2.95122 121.1 2.95122Z" fill="#EEEEEE" stroke="white" stroke-width="4"/>
<path fill-rule="evenodd" clip-rule="evenodd" d="M31.9001 6.92683H121.101C129.784 6.92683 132.933 7.83097 136.108 9.52877C139.282 11.2266 141.774 13.718 143.472 16.8926C143.814 17.5322 144.124 18.1707 144.4 18.8537H8.60059C8.8773 18.1707 9.18714 17.5322 9.52919 16.8926C11.227 13.718 13.7184 11.2266 16.893 9.52877C20.0676 7.83097 23.2165 6.92683 31.9001 6.92683Z" fill="#FF4B4B"/>
<path fill-rule="evenodd" clip-rule="evenodd" d="M146.068 30.7805C146.071 31.1431 146.073 31.516 146.073 31.8997V42.7073H6.92676V31.8997C6.92676 31.516 6.92852 31.1431 6.93204 30.7805H146.068Z" fill="#FF4B4B"/>
<path fill-rule="evenodd" clip-rule="evenodd" d="M146.073 54.6342V66.561H6.92676L6.92676 54.6342H146.073Z" fill="#FF4B4B"/>
<path fill-rule="evenodd" clip-rule="evenodd" d="M146.073 89.2954C146.073 89.6791 146.071 90.0521 146.068 90.4146H6.93204C6.92852 90.0521 6.92676 89.6791 6.92676 89.2954V78.4878H146.073V89.2954Z" fill="#FF4B4B"/>
<path fill-rule="evenodd" clip-rule="evenodd" d="M144.4 102.341C144.124 103.024 143.814 103.663 143.472 104.303C141.774 107.477 139.282 109.969 136.108 111.666C132.933 113.364 129.784 114.268 121.101 114.268H31.9001C23.2165 114.268 20.0676 113.364 16.893 111.666C13.7184 109.969 11.227 107.477 9.52919 104.303C9.18714 103.663 8.8773 103.024 8.60059 102.341H144.4Z" fill="#FF4B4B"/>
<path fill-rule="evenodd" clip-rule="evenodd" d="M31.8996 6.92683H76.4999V54.6342H6.92676V31.8997C6.92676 23.2161 7.8309 20.0672 9.5287 16.8926C11.2265 13.718 13.7179 11.2266 16.8925 9.52877C20.0671 7.83097 23.216 6.92683 31.8996 6.92683Z" fill="#1CB0F6"/>
<path d="M62.1998 26.0136L59.6642 27.3466C58.868 27.7652 57.8833 27.4591 57.4647 26.6629C57.298 26.3459 57.2405 25.9827 57.301 25.6297L57.7853 22.8063C57.8314 22.5376 57.7423 22.2635 57.5471 22.0732L55.4958 20.0736C54.8516 19.4458 54.8385 18.4146 55.4663 17.7705C55.7163 17.514 56.0439 17.3471 56.3984 17.2956L59.2333 16.8837C59.503 16.8445 59.7362 16.675 59.8569 16.4306L61.1247 13.8617C61.5228 13.0551 62.4994 12.724 63.306 13.122C63.6272 13.2806 63.8872 13.5405 64.0457 13.8617L65.3135 16.4306C65.4341 16.675 65.6673 16.8445 65.9371 16.8837L68.772 17.2956C69.6621 17.4249 70.2789 18.2514 70.1495 19.1416C70.098 19.496 69.9311 19.8236 69.6746 20.0736L67.6233 22.0732C67.4281 22.2635 67.339 22.5376 67.3851 22.8063L67.8693 25.6297C68.0214 26.5163 67.426 27.3582 66.5394 27.5103C66.1864 27.5708 65.8232 27.5133 65.5062 27.3466L62.9706 26.0136C62.7293 25.8868 62.4411 25.8868 62.1998 26.0136Z" fill="white"/>
<path d="M62.1998 45.8917L59.6642 47.2247C58.868 47.6433 57.8833 47.3372 57.4647 46.541C57.298 46.2239 57.2405 45.8608 57.301 45.5078L57.7853 42.6844C57.8314 42.4157 57.7423 42.1415 57.5471 41.9512L55.4958 39.9517C54.8516 39.3238 54.8385 38.2927 55.4663 37.6486C55.7163 37.3921 56.0439 37.2251 56.3984 37.1736L59.2333 36.7617C59.503 36.7225 59.7362 36.5531 59.8569 36.3086L61.1247 33.7398C61.5228 32.9332 62.4994 32.602 63.306 33.0001C63.6272 33.1586 63.8872 33.4186 64.0457 33.7398L65.3135 36.3086C65.4341 36.5531 65.6673 36.7225 65.9371 36.7617L68.772 37.1736C69.6621 37.303 70.2789 38.1295 70.1495 39.0196C70.098 39.3741 69.9311 39.7017 69.6746 39.9517L67.6233 41.9512C67.4281 42.1415 67.339 42.4157 67.3851 42.6844L67.8693 45.5078C68.0214 46.3943 67.426 47.2363 66.5394 47.3883C66.1864 47.4489 65.8232 47.3914 65.5062 47.2247L62.9706 45.8917C62.7293 45.7648 62.4411 45.7648 62.1998 45.8917Z" fill="white"/>
<path d="M42.3218 26.0136L39.7862 27.3466C38.9901 27.7652 38.0053 27.4591 37.5867 26.6629C37.4201 26.3459 37.3626 25.9827 37.4231 25.6297L37.9074 22.8063C37.9534 22.5376 37.8644 22.2635 37.6692 22.0732L35.6178 20.0736C34.9737 19.4458 34.9605 18.4146 35.5884 17.7705C35.8384 17.514 36.166 17.3471 36.5205 17.2956L39.3553 16.8837C39.6251 16.8445 39.8583 16.675 39.979 16.4306L41.2467 13.8617C41.6448 13.0551 42.6214 12.724 43.4281 13.122C43.7493 13.2806 44.0092 13.5405 44.1678 13.8617L45.4355 16.4306C45.5562 16.675 45.7894 16.8445 46.0592 16.8837L48.894 17.2956C49.7842 17.4249 50.4009 18.2514 50.2716 19.1416C50.2201 19.496 50.0532 19.8236 49.7967 20.0736L47.7454 22.0732C47.5501 22.2635 47.4611 22.5376 47.5071 22.8063L47.9914 25.6297C48.1435 26.5163 47.548 27.3582 46.6615 27.5103C46.3084 27.5708 45.9453 27.5133 45.6283 27.3466L43.0927 26.0136C42.8514 25.8868 42.5631 25.8868 42.3218 26.0136Z" fill="white"/>
<path d="M42.3218 45.8917L39.7862 47.2247C38.9901 47.6433 38.0053 47.3372 37.5867 46.541C37.4201 46.2239 37.3626 45.8608 37.4231 45.5078L37.9074 42.6844C37.9534 42.4157 37.8644 42.1415 37.6692 41.9512L35.6178 39.9517C34.9737 39.3238 34.9605 38.2927 35.5884 37.6486C35.8384 37.3921 36.166 37.2251 36.5205 37.1736L39.3553 36.7617C39.6251 36.7225 39.8583 36.5531 39.979 36.3086L41.2467 33.7398C41.6448 32.9332 42.6214 32.602 43.4281 33.0001C43.7493 33.1586 44.0092 33.4186 44.1678 33.7398L45.4355 36.3086C45.5562 36.5531 45.7894 36.7225 46.0592 36.7617L48.894 37.1736C49.7842 37.303 50.4009 38.1295 50.2716 39.0196C50.2201 39.3741 50.0532 39.7017 49.7967 39.9517L47.7454 41.9512C47.5501 42.1415 47.4611 42.4157 47.5071 42.6844L47.9914 45.5078C48.1435 46.3943 47.548 47.2363 46.6615 47.3883C46.3084 47.4489 45.9453 47.3914 45.6283 47.2247L43.0927 45.8917C42.8514 45.7648 42.5631 45.7648 42.3218 45.8917Z" fill="white"/>
<path d="M22.4439 26.0136L19.9083 27.3466C19.1121 27.7652 18.1274 27.4591 17.7088 26.6629C17.5421 26.3459 17.4846 25.9827 17.5452 25.6297L18.0294 22.8063C18.0755 22.5376 17.9864 22.2635 17.7912 22.0732L15.7399 20.0736C15.0958 19.4458 15.0826 18.4146 15.7105 17.7705C15.9605 17.514 16.2881 17.3471 16.6425 17.2956L19.4774 16.8837C19.7472 16.8445 19.9804 16.675 20.101 16.4306L21.3688 13.8617C21.7669 13.0551 22.7435 12.724 23.5501 13.122C23.8713 13.2806 24.1313 13.5405 24.2898 13.8617L25.5576 16.4306C25.6783 16.675 25.9115 16.8445 26.1812 16.8837L29.0161 17.2956C29.9063 17.4249 30.523 18.2514 30.3937 19.1416C30.3422 19.496 30.1752 19.8236 29.9188 20.0736L27.8674 22.0732C27.6722 22.2635 27.5831 22.5376 27.6292 22.8063L28.1135 25.6297C28.2655 26.5163 27.6701 27.3582 26.7835 27.5103C26.4305 27.5708 26.0674 27.5133 25.7503 27.3466L23.2147 26.0136C22.9735 25.8868 22.6852 25.8868 22.4439 26.0136Z" fill="white"/>
<path d="M22.4439 45.8917L19.9083 47.2247C19.1121 47.6433 18.1274 47.3372 17.7088 46.541C17.5421 46.2239 17.4846 45.8608 17.5452 45.5078L18.0294 42.6844C18.0755 42.4157 17.9864 42.1415 17.7912 41.9512L15.7399 39.9517C15.0958 39.3238 15.0826 38.2927 15.7105 37.6486C15.9605 37.3921 16.2881 37.2251 16.6425 37.1736L19.4774 36.7617C19.7472 36.7225 19.9804 36.5531 20.101 36.3086L21.3688 33.7398C21.7669 32.9332 22.7435 32.602 23.5501 33.0001C23.8713 33.1586 24.1313 33.4186 24.2898 33.7398L25.5576 36.3086C25.6783 36.5531 25.9115 36.7225 26.1812 36.7617L29.0161 37.1736C29.9063 37.303 30.523 38.1295 30.3937 39.0196C30.3422 39.3741 30.1752 39.7017 29.9188 39.9517L27.8674 41.9512C27.6722 42.1415 27.5831 42.4157 27.6292 42.6844L28.1135 45.5078C28.2655 46.3943 27.6701 47.2363 26.7835 47.3883C26.4305 47.4489 26.0674 47.3914 25.7503 47.2247L23.2147 45.8917C22.9735 45.7648 22.6852 45.7648 22.4439 45.8917Z" fill="white"/>
</svg>
