<svg width="153" height="121" viewBox="0 0 153 121" fill="none" xmlns="http://www.w3.org/2000/svg">
<path fill-rule="evenodd" clip-rule="evenodd" d="M121.1 2.93939H31.8997C22.0902 2.93939 18.5889 4.09956 15.0177 6.00663C11.14 8.07734 8.09677 11.116 6.02297 14.9879C4.11307 18.5538 2.95117 22.0499 2.95117 31.8448V89.1552C2.95117 98.9501 4.11307 102.446 6.02297 106.012C8.09677 109.884 11.14 112.923 15.0177 114.993C18.5889 116.9 22.0902 118.061 31.8997 118.061H121.1C130.91 118.061 134.411 116.9 137.982 114.993C141.86 112.923 144.903 109.884 146.977 106.012C148.887 102.446 150.049 98.9501 150.049 89.1552V31.8448C150.049 22.0499 148.887 18.5538 146.977 14.9879C144.903 11.116 141.86 8.07734 137.982 6.00663C134.411 4.09956 130.91 2.93939 121.1 2.93939Z" fill="#FF4B4B" stroke="white" stroke-width="4"/>
<path fill-rule="evenodd" clip-rule="evenodd" d="M6.92676 37.5325H146.073V83.4675H6.92676V37.5325Z" fill="#FFC800"/>
<path fill-rule="evenodd" clip-rule="evenodd" d="M61.039 49.0162C63.1737 49.0162 64.9042 50.7442 64.9042 52.8757V68.1243C64.9042 70.2558 63.1737 71.9838 61.039 71.9838C58.9043 71.9838 57.1738 70.2558 57.1738 68.1243V52.8757C57.1738 50.7442 58.9043 49.0162 61.039 49.0162Z" fill="white"/>
<path fill-rule="evenodd" clip-rule="evenodd" d="M22.3876 49.0162C24.5223 49.0162 26.2528 50.7442 26.2528 52.8757V68.1243C26.2528 70.2558 24.5223 71.9838 22.3876 71.9838C20.253 71.9838 18.5225 70.2558 18.5225 68.1243V52.8757C18.5225 50.7442 20.253 49.0162 22.3876 49.0162Z" fill="white"/>
<path fill-rule="evenodd" clip-rule="evenodd" d="M33.5968 45.1883H49.8306C51.7518 45.1883 53.3092 46.7434 53.3092 48.6618V64.2334C53.3092 70.6279 48.1177 75.8117 41.7137 75.8117C35.3097 75.8117 30.1182 70.6279 30.1182 64.2334V48.6618C30.1182 46.7434 31.6756 45.1883 33.5968 45.1883Z" fill="#FF4B4B"/>
</svg>
